<svg xmlns="http://www.w3.org/2000/svg" viewBox="0 0 1200 630" role="img" aria-labelledby="title desc">
    <title id="title">KadastrView - кадастрова карта України онлайн</title>
    <desc id="desc">Соціальне превʼю для сервісу пошуку земельних ділянок України.</desc>
    <rect width="1200" height="630" fill="#f7f4ea"/>
    <g opacity=".32" stroke="#1f6f54" stroke-width="2" fill="none">
        <path d="M68 90h1064M68 170h1064M68 250h1064M68 330h1064M68 410h1064M68 490h1064M68 570h1064"/>
        <path d="M120 54v540M220 54v540M320 54v540M420 54v540M520 54v540M620 54v540M720 54v540M820 54v540M920 54v540M1020 54v540"/>
    </g>
    <path d="M552 101 747 74 965 156 1068 311 1018 475 819 538 622 502 460 405 398 252Z" fill="#f0d879" fill-opacity=".68" stroke="#1f6f54" stroke-width="5" stroke-linejoin="round"/>
    <path d="M493 294 612 239 734 284 837 242 965 312 933 424 794 465 640 424 528 461 435 377Z" fill="#ffffff" fill-opacity=".46" stroke="#1f6f54" stroke-width="4" stroke-linejoin="round"/>
    <rect x="72" y="78" width="435" height="184" rx="16" fill="#ffffff" fill-opacity=".94" stroke="#20231d" stroke-opacity=".12"/>
    <circle cx="111" cy="121" r="12" fill="#2f9e44"/>
    <text x="142" y="119" fill="#6b705f" font-family="Inter, Arial, sans-serif" font-size="26" font-weight="800" letter-spacing="0">КАРТА ЗЕМЕЛЬНИХ ДІЛЯНОК</text>
    <text x="94" y="182" fill="#20231d" font-family="Inter, Arial, sans-serif" font-size="58" font-weight="850" letter-spacing="0">KadastrView</text>
    <text x="78" y="330" fill="#20231d" font-family="Inter, Arial, sans-serif" font-size="46" font-weight="800" letter-spacing="0">Кадастрова карта України</text>
    <text x="80" y="392" fill="#485143" font-family="Inter, Arial, sans-serif" font-size="30" font-weight="600" letter-spacing="0">Пошук ділянок за кадастровим номером,</text>
    <text x="80" y="436" fill="#485143" font-family="Inter, Arial, sans-serif" font-size="30" font-weight="600" letter-spacing="0">межі, площа, власність та відкриті геодані.</text>
    <rect x="80" y="500" width="346" height="68" rx="12" fill="#1f6f54"/>
    <text x="112" y="544" fill="#ffffff" font-family="Inter, Arial, sans-serif" font-size="28" font-weight="800" letter-spacing="0">kadastrview.online</text>
</svg>
